[center][img]http://img810.imageshack.us/img810/7645/30920540432288933453.jpg[/img]



[img]http://leetleech.org/images/48874973695367351744.png[/img]


Format                           : AVI
Format/Info                      : Audio Video Interleave
File size                        : 1.52 GiB
Duration                         : 1h 51mn
Overall bit rate                 : 1 951 Kbps
Writing application              : VirtualDubMod 1.5.10.2 (build 2540/release)
Writing library                  : VirtualDub build 32839/release

Video
ID                               : 0
Format                           : MPEG-4 Visual
Format profile                   : Advanced Simple@L5
Format settings, BVOP            : Yes
Format settings, QPel            : No
Format settings, GMC             : No warppoints
Format settings, Matrix          : Custom
Codec ID                         : XVID
Codec ID/Hint                    : XviD
Duration                         : 1h 51mn
Bit rate                         : 1 749 Kbps
Width                            : 720 pixels
Height                           : 400 pixels
Display aspect ratio             : 16:9
Frame rate                       : 25.000 fps
Color space                      : YUV
Chroma subsampling               : 4:2:0
Bit depth                        : 8 bits
Scan type                        : Progressive
Bits/(Pixel*Frame)               : 0.243
Stream size                      : 1.37 GiB (90%)
Writing library                  : XviD 1.2.1 (UTC 2008-12-04)

Audio
ID                               : 1
Format                           : MPEG Audio
Format version                   : Version 1
Format profile                   : Layer 3
Mode                             : Joint stereo
Mode extension                   : MS Stereo
Codec ID                         : 55
Codec ID/Hint                    : MP3
Duration                         : 1h 51mn
Bit rate mode                    : Constant
Bit rate                         : 192 Kbps
Channel(s)                       : 2 channels
Sampling rate                    : 44.1 KHz
Stream size                      : 154 MiB (10%)
Alignment                        : Split accross interleaves
Interleave, duration             : 40 ms (1.00 video frame)
Interleave, preload duration     : 500 ms
Writing library                  : LAME3.92 (alpha)




[url]http://www.imdb.com/title/tt1564367/[/url]




[IMG]http://leetleech.org/images/89524873606771859129.png[/IMG]



Users: 6.3/10 (7,387 votes) 68 reviews | Critics: 135 reviews Metascore: 33/100 (based on 31 reviews from Metacritic.com)

On a weekend trip to Hawaii, a plastic surgeon convinces his loyal assistant to pose as his soon-to-be-divorced wife in order to cover up a careless lie he told to his much-younger girlfriend.
Director:
Dennis Dugan
Writers:
Allan Loeb (screenplay), Timothy Dowling (screenplay), and 4 more credits »
Stars:
Adam Sandler, Jennifer Aniston and Brooklyn Deck


[img]http://leetleech.org/images/95521316153253938506.png[/img]




[img]http://img40.imageshack.us/img40/6968/vlcsnap2011041418h30m03.png[/img]

[img]http://img13.imageshack.us/img13/5321/vlcsnap2011041418h30m10.png[/img]

[img]http://img820.imageshack.us/img820/1457/vlcsnap2011041418h30m39.png[/img]


ViDEO..........: ELEKTRi4KA..............Thanks

AUDiO..........: IMAGiNE .....................Thanks


Wasnt gonna bother this ones been done enough but was asked so here goes with a few filters ...Slight sharpen ,saturation chaqnged ,rgb slight change and contrast ...


Enjoy !


Greetz to Imagine ,Flawl3ss,DiLLoN,BDK,NOiR,TOXiCiNK,THC,Ez,Rx,Boobyblue








[/center]